<svg xmlns="http://www.w3.org/2000/svg" xmlns:xlink="http://www.w3.org/1999/xlink" viewBox="0 0 323.9 265.47">
  <defs>
    <style>
      .cls-1 {
        fill: url(#linear-gradient);
      }

      .cls-2 {
        fill: url(#linear-gradient-2);
      }
    </style>
    <linearGradient id="linear-gradient" x1="284.83" y1="369.56" x2="481.5" y2="172.22" gradientUnits="userSpaceOnUse">

      <stop offset="0" stop-color="#e07a5f"/>
      <stop offset="1" stop-color="#E56717"/>
    </linearGradient>
    <linearGradient id="linear-gradient-2" x1="356.33" y1="234.41" x2="337" y2="361.08" gradientUnits="userSpaceOnUse">

      <stop offset="0" stop-color="#FFE65A" stop-opacity="0.03"/>
      <stop offset="2" stop-color="orange"/>
    </linearGradient>
  </defs>
  <title>background css</title>
  <g id="OBJECTS">
    <g>
      <path class="cls-1" d="M147.6,378.33H471.5V112.86c-30,3.86-47.92,27.77-53.72,40.67-9,20-24,32.75-50.75,29.5s-42.75,4.5-59.25,39.25c-14.55,30.62-30.25,23.25-91.75,38s-44.5,55.5-57.25,97.39A58.23,58.23,0,0,1,147.6,378.33Z" transform="translate(-147.6 -112.86)"/>
      <path class="cls-2" d="M292,321.91C259,323,212.77,341.7,197.23,378.33H471.5V204.27c-40-.65-78.08,20.36-91,56.79C366.36,301.19,331,320.63,292,321.91Z" transform="translate(-147.6 -112.86)"/>
    </g>
  </g>
</svg>
